<svg width="24" height="24" viewBox="0 0 24 24" fill="none" xmlns="http://www.w3.org/2000/svg">
<mask id="mask0_1026_2898" style="mask-type:alpha" maskUnits="userSpaceOnUse" x="0" y="0" width="24" height="24">
<rect width="24" height="24" fill="#D9D9D9"/>
</mask>
<g mask="url(#mask0_1026_2898)">
<path d="M11.9999 19.9999C11.4499 19.9999 10.9791 19.8041 10.5874 19.4124C10.1958 19.0208 9.99994 18.5499 9.99994 17.9999C9.99994 17.4499 10.1958 16.9791 10.5874 16.5874C10.9791 16.1958 11.4499 15.9999 11.9999 15.9999C12.5499 15.9999 13.0208 16.1958 13.4124 16.5874C13.8041 16.9791 13.9999 17.4499 13.9999 17.9999C13.9999 18.5499 13.8041 19.0208 13.4124 19.4124C13.0208 19.8041 12.5499 19.9999 11.9999 19.9999ZM11.9999 13.9999C11.4499 13.9999 10.9791 13.8041 10.5874 13.4124C10.1958 13.0208 9.99994 12.5499 9.99994 11.9999C9.99994 11.4499 10.1958 10.9791 10.5874 10.5874C10.9791 10.1958 11.4499 9.99994 11.9999 9.99994C12.5499 9.99994 13.0208 10.1958 13.4124 10.5874C13.8041 10.9791 13.9999 11.4499 13.9999 11.9999C13.9999 12.5499 13.8041 13.0208 13.4124 13.4124C13.0208 13.8041 12.5499 13.9999 11.9999 13.9999ZM11.9999 7.99994C11.4499 7.99994 10.9791 7.80411 10.5874 7.41244C10.1958 7.02077 9.99994 6.54994 9.99994 5.99994C9.99994 5.44994 10.1958 4.97911 10.5874 4.58744C10.9791 4.19577 11.4499 3.99994 11.9999 3.99994C12.5499 3.99994 13.0208 4.19577 13.4124 4.58744C13.8041 4.97911 13.9999 5.44994 13.9999 5.99994C13.9999 6.54994 13.8041 7.02077 13.4124 7.41244C13.0208 7.80411 12.5499 7.99994 11.9999 7.99994Z" fill="#1C1B1F"/>
</g>
</svg>
