<svg width="24" height="25" viewBox="0 0 24 25" fill="none" xmlns="http://www.w3.org/2000/svg">
<path d="M11.612 16.1099L10.803 17.9619C10.492 18.6739 9.507 18.6739 9.196 17.9619L8.388 16.1099C7.668 14.4619 6.373 13.1499 4.757 12.4319L2.531 11.4439C1.823 11.1299 1.823 10.0999 2.531 9.7859L4.687 8.8289C6.344 8.0929 7.663 6.7329 8.37 5.0279L9.19 3.0539C9.494 2.3209 10.506 2.3209 10.81 3.0539L11.629 5.0279C12.336 6.7329 13.655 8.0929 15.312 8.8289L17.468 9.7859C18.176 10.0999 18.176 11.1299 17.468 11.4439L15.242 12.4319C13.627 13.1489 12.332 14.4609 11.612 16.1099ZM18.713 21.6249L18.466 22.1899C18.286 22.6039 17.713 22.6039 17.532 22.1899L17.285 21.6249C16.845 20.6169 16.054 19.8149 15.066 19.3759L14.306 19.0389C13.895 18.8569 13.895 18.2589 14.306 18.0769L15.023 17.7579C16.036 17.3079 16.842 16.4759 17.274 15.4339L17.527 14.8229C17.703 14.3969 18.292 14.3969 18.468 14.8229L18.721 15.4339C19.153 16.4759 19.959 17.3079 20.972 17.7579L21.689 18.0769C22.1 18.2589 22.1 18.8569 21.689 19.0389L20.929 19.3759C19.945 19.8149 19.153 20.6169 18.713 21.6249Z" fill="white"/>
</svg>
