<svg width="21" height="25" viewBox="0 0 21 25" fill="none" xmlns="http://www.w3.org/2000/svg">
<g clip-path="url(#clip0_968_12876)">
<path d="M6.36361 21.0301C6.20728 21.0301 6.05405 21.0301 5.90083 21.0301C4.20372 21.0301 2.50583 21.0316 0.808721 21.0301C0.170943 21.0301 0.00216577 20.8641 0.00138799 20.2545C0.00138799 19.554 -0.000945344 18.8536 0.00138799 18.1531C0.00605466 17.0817 0.57461 16.2461 1.60983 15.8595C1.87972 15.7589 1.94739 15.6328 1.94661 15.3745C1.93805 13.0854 1.9225 10.797 1.94817 8.50791C1.99017 4.81109 4.95272 1.38306 8.69228 0.666818C13.2376 -0.20408 17.6834 2.41612 18.7598 6.63322C18.9403 7.3412 19.0328 8.08672 19.0453 8.81647C19.0818 11.005 19.0616 13.1935 19.0538 15.3827C19.0531 15.6215 19.1013 15.7461 19.3642 15.843C20.4142 16.2319 20.9936 17.0787 20.9991 18.1621C21.0022 18.8123 20.9991 19.4632 20.9991 20.1134C20.9991 20.9107 20.8769 21.0308 20.0657 21.0308C18.3943 21.0308 16.7228 21.0391 15.0514 21.0241C14.7255 21.0211 14.6018 21.0991 14.5225 21.4302C14.0854 23.2531 12.3408 24.5332 10.3979 24.5009C8.51494 24.4694 6.84039 23.1195 6.44372 21.3139C6.42505 21.2298 6.39628 21.1472 6.36283 21.0308L6.36361 21.0301ZM17.9447 15.7018C17.9525 15.5367 17.9626 15.415 17.9626 15.2934C17.9634 13.1672 17.9642 11.0403 17.9626 8.91407C17.9626 7.91705 17.7783 6.9553 17.3979 6.02434C15.8113 2.14134 10.7557 0.359752 6.99205 2.40036C4.41917 3.79605 3.11172 5.98155 3.04794 8.81347C2.9935 11.2137 3.03705 13.6162 3.03628 16.0179C3.03628 16.5667 2.90483 16.7056 2.35805 16.7687C1.77472 16.8355 1.29639 17.1313 1.2015 17.6749C1.07317 18.4121 1.10194 19.1749 1.06383 19.9257H19.9063C19.9063 19.3333 19.9102 18.7725 19.9055 18.2117C19.8977 17.3175 19.3299 16.7694 18.3958 16.7687C14.1453 16.7649 9.8955 16.7657 5.64494 16.7649C5.0375 16.7649 4.75672 16.5847 4.7715 16.2048C4.78472 15.8497 5.04217 15.7011 5.64961 15.7011C9.58905 15.7011 13.5285 15.7011 17.4672 15.7011H17.9463L17.9447 15.7018ZM7.56605 21.0609C7.6695 22.3267 9.09594 23.4506 10.5426 23.422C11.9862 23.3935 13.3605 22.2756 13.4282 21.0609H7.56605Z" fill="white"/>
<path d="M4.67056 10.092C4.77478 9.11521 4.82845 8.13019 4.99878 7.1647C5.13412 6.39515 5.56267 5.72246 6.0729 5.11283C6.33267 4.80276 6.6469 4.74045 6.91367 4.93189C7.19056 5.13085 7.20223 5.44317 6.92845 5.78177C6.21056 6.67219 5.86212 7.67597 5.88312 8.80739C5.90023 9.74436 5.88623 10.6813 5.88623 11.6183C5.88623 11.7181 5.8909 11.8187 5.88079 11.9178C5.84423 12.27 5.63578 12.4824 5.32934 12.4877C5.00656 12.4929 4.77401 12.2677 4.76701 11.8991C4.75456 11.3 4.7639 10.6993 4.7639 10.1002C4.73279 10.0972 4.70167 10.0942 4.67056 10.0912V10.092Z" fill="white"/>
<path d="M10.2301 3.10135C10.3203 3.10135 10.4113 3.0991 10.5016 3.10135C10.8212 3.11186 11.0063 3.27703 11.0452 3.57734C11.081 3.85813 10.8624 4.09838 10.5544 4.15093C9.94777 4.25529 9.34111 4.3619 8.73522 4.47001C8.40777 4.52857 8.16744 4.42121 8.06555 4.11114C7.96755 3.81533 8.09122 3.56382 8.38444 3.47749C8.98489 3.3003 9.60011 3.17042 10.2091 3.02026C10.2161 3.04654 10.2231 3.07282 10.2301 3.09985V3.10135Z" fill="white"/>
</g>
<defs>
<clipPath id="clip0_968_12876">
<rect width="21" height="24" fill="white" transform="translate(0 0.5)"/>
</clipPath>
</defs>
</svg>
